<?xml version="1.0" encoding="iso-8859-1"?>
<!-- Uploaded to: SVG Repo, www.svgrepo.com, Generator: SVG Repo Mixer Tools -->
<!DOCTYPE svg PUBLIC "-//W3C//DTD SVG 1.1//EN" "http://www.w3.org/Graphics/SVG/1.1/DTD/svg11.dtd">
<svg fill="#000000" height="800px" width="800px" version="1.1" id="Capa_1" xmlns="http://www.w3.org/2000/svg" xmlns:xlink="http://www.w3.org/1999/xlink" 
	 viewBox="0 0 338.734 338.734" xml:space="preserve">
<g>
	<path d="M334.773,71.718l-1.98-0.421c-17.651-3.751-34.667-5.574-52.019-5.574c-14.209,0-28.719,1.29-43.126,3.833V28.884
		c0-2.361-1.651-4.4-3.96-4.891l-1.981-0.421c-21.17-4.5-41.56-6.687-62.337-6.687c-20.778,0-41.171,2.188-62.344,6.687l-1.98,0.421
		c-2.31,0.491-3.961,2.53-3.961,4.891v40.67c-14.397-2.543-28.901-3.832-43.109-3.832c-17.353,0-34.373,1.823-52.034,5.574
		l-1.98,0.42C1.652,72.208,0,74.248,0,76.609v240.24c0,2.761,2.238,5,5,5h225.148l103.586-0.001c2.762,0,5-2.239,5-5V76.609
		C338.734,74.248,337.083,72.209,334.773,71.718z M79.602,268.8c0,0.829-0.672,1.5-1.5,1.5H40.301c-0.828,0-1.5-0.671-1.5-1.5
		v-31.132c0-0.829,0.672-1.5,1.5-1.5h37.801c0.828,0,1.5,0.671,1.5,1.5V268.8z M79.602,206.657c0,0.829-0.672,1.5-1.5,1.5H40.301
		c-0.828,0-1.5-0.671-1.5-1.5v-31.133c0-0.829,0.672-1.5,1.5-1.5h37.801c0.828,0,1.5,0.671,1.5,1.5V206.657z M79.602,144.514
		c0,0.829-0.672,1.5-1.5,1.5H40.301c-0.828,0-1.5-0.671-1.5-1.5v-31.132c0-0.829,0.672-1.5,1.5-1.5h37.801
		c0.828,0,1.5,0.671,1.5,1.5V144.514z M222.648,306.847h-26.424v-88.998c0-2.761-2.238-5-5-5H147.51c-2.762,0-5,2.239-5,5v88.999
		h-26.424V37.043c17.816-3.418,35.745-5.151,53.285-5.151c17.541,0,35.465,1.733,53.277,5.151V306.847z M299.934,268.8
		c0,0.829-0.672,1.5-1.5,1.5h-37.801c-0.828,0-1.5-0.671-1.5-1.5v-31.132c0-0.829,0.672-1.5,1.5-1.5h37.801
		c0.828,0,1.5,0.671,1.5,1.5V268.8z M299.934,206.657c0,0.829-0.672,1.5-1.5,1.5h-37.801c-0.828,0-1.5-0.671-1.5-1.5v-31.133
		c0-0.829,0.672-1.5,1.5-1.5h37.801c0.828,0,1.5,0.671,1.5,1.5V206.657z M299.934,144.514c0,0.829-0.672,1.5-1.5,1.5h-37.801
		c-0.828,0-1.5-0.671-1.5-1.5v-31.132c0-0.829,0.672-1.5,1.5-1.5h37.801c0.828,0,1.5,0.671,1.5,1.5V144.514z"/>
	<path d="M159.83,74.135v6.98c-12.197,3.221-19.666,11.797-19.666,22.817c0,19.334,16.59,24.358,27.568,27.683
		c11.811,3.577,14.191,5.196,14.154,9.646c0,4.921-8.121,6.234-12.919,6.234c-5.892,0-12.515-2.652-16.107-6.449
		c-0.53-0.561-1.263-0.889-2.036-0.91c-0.771-0.021-1.521,0.264-2.08,0.795l-8.467,8.009c-1.168,1.107-1.219,2.95-0.113,4.119
		c4.93,5.21,11.996,9.09,19.666,10.853v6.649c0,1.608,1.305,2.913,2.912,2.913h11.654c1.609,0,2.912-1.305,2.912-2.913v-6.332
		c13.489-2.52,22.059-11.311,22.057-22.895c0.154-18.356-15.926-23.227-26.566-26.449c-12.465-3.775-15.155-5.72-15.155-10.954
		c0-5.313,8.498-6.731,13.52-6.731c4.774,0,10.458,1.518,13.821,3.691c1.354,0.873,3.154,0.486,4.028-0.865l6.324-9.788
		c0.873-1.351,0.485-3.155-0.866-4.028c-4.676-3.021-10.813-5.171-17.163-6.05v-6.027c0-1.609-1.303-2.913-2.912-2.913h-11.654
		C161.135,71.222,159.83,72.526,159.83,74.135z"/>
</g>
</svg>